# xmcd
#
# Track frame offsets:
#	150
#	23297
#	46137
#	66848
#	86495
#	109956
#	127272
#	148302
#	168278
#	192090
#	212344
#	234108
#	254515
#	275187
#	297927
#	318036
#
# Disc length: 4506 seconds
#
# Revision: 0
# Processed by: cddbd v1.5.1PL0 Copyright (c) Steve Scherf et al.
# Submitted via: dBpowerAMP V4.0
#
DISCID=e4119810
DTITLE=wlliam - vallenato
DYEAR=1900
DGENRE=
TTITLE0=la cimana
TTITLE1=la dueña de my suerte
TTITLE2=locamente enamorado
TTITLE3=Hablame
TTITLE4=Ay Hombe
TTITLE5=Entre el cielo y la Tierra
TTITLE6=de que te beso te beso
TTITLE7=tu norte soy yo
TTITLE8=llegaste tarde
TTITLE9=mensaje a papa
TTITLE10=inalcansable
TTITLE11=otra primavera
TTITLE12=una serenata mas
TTITLE13=regalame una noche
TTITLE14=me toco llorar
TTITLE15=q descaro
EXTD=vallenato
EXTT0=
EXTT1=
EXTT2=
EXTT3=
EXTT4=
EXTT5=
EXTT6=
EXTT7=
EXTT8=
EXTT9=
EXTT10=
EXTT11=
EXTT12=
EXTT13=
EXTT14=
EXTT15=
PLAYORDER=
